<svg width="32" height="26" viewBox="0 0 32 26" fill="none" xmlns="http://www.w3.org/2000/svg">
<path d="M23.1649 21.1763C21.9083 20.6294 20.6199 20.1963 19.3651 19.8481L18.4149 19.5845V20.7681C18.4149 22.9774 16.6243 24.7681 14.4149 24.7681C12.2055 24.7681 10.4149 22.9774 10.4149 20.7681V7.24756C10.596 7.24022 10.807 7.23127 11.0448 7.21729C11.9027 7.16682 13.1117 7.06612 14.5214 6.86475C17.0238 6.50723 20.1928 5.82643 23.1649 4.52783V21.1763ZM29.4569 0.935059C29.874 0.935162 30.2879 1.13235 30.6053 1.4624C30.8874 1.75571 31.047 2.10519 31.077 2.41357L31.0819 2.54248C31.0682 3.12775 31.0678 8.28891 31.0712 13.2817C31.0728 15.7832 31.0759 18.2492 31.078 20.0894C31.0791 21.0094 31.0802 21.7734 31.0809 22.3071C31.0813 22.5739 31.0807 22.7837 31.0809 22.9263C31.081 22.9972 31.0819 23.0516 31.0819 23.0884V23.1431C31.0819 24.041 30.3539 24.7679 29.4569 24.7681C28.5601 24.7681 27.8319 24.0399 27.8319 23.1431V2.56006C27.8319 1.66201 28.5598 0.935059 29.4569 0.935059ZM5.16199 7.26807H5.74792V18.4351H5.21277C2.97851 18.4351 0.915055 16.1042 0.914917 12.8521C0.914917 9.58268 2.94283 7.26807 5.16199 7.26807ZM16.7479 20.7661L16.745 19.8345L16.743 19.2104L16.1288 19.0991L15.118 18.9253C14.2379 18.7825 13.6862 18.7218 12.9237 18.6401L12.1014 18.5522L12.0946 19.3794L12.0819 20.7612V20.7681C12.0819 22.0563 13.1267 23.1021 14.4149 23.1021C15.7031 23.102 16.7479 22.0563 16.7479 20.7681V20.7661Z" fill="#3674B5" stroke="black" stroke-width="1.5"/>
</svg>
