<svg width="134" height="119" viewBox="0 0 134 119" fill="none" xmlns="http://www.w3.org/2000/svg">
<path d="M54.4634 13.2823C46.7536 20.4422 40.733 26.3159 41.0362 26.4016C41.3827 26.4445 48.2696 26.6589 56.3692 26.8732C73.1749 27.3448 74.9075 27.6021 82.0109 31.0748C88.5079 34.1617 94.182 40.0354 97.084 46.4665C100.982 55.1698 101.069 66.9171 97.3006 76.5637C94.2686 84.3667 87.9015 91.7838 81.7077 94.785C76.2069 97.4002 74.9941 97.5289 52.9041 97.8719L32.9799 98.1291L25.6166 105.718C21.5451 109.876 17.0838 114.55 15.6544 116.05L13.0556 118.751L49.8722 118.537L86.6888 118.323L91.1934 116.951C113.11 110.391 127.62 94.4848 131.995 72.405C135.33 55.3842 131.605 37.0343 121.946 22.7574C119.217 18.7273 111.984 11.4388 108.172 8.90921C104.664 6.59403 99.5962 4.10737 96.0445 2.94978C91.0201 1.32059 87.2518 0.848976 77.8095 0.591736L68.497 0.334496L54.4634 13.2823Z" fill="#3674B5"/>
<path d="M1.14435 13.7539V26.7875L9.02743 27.0447C13.3155 27.2162 19.6393 27.3448 22.9744 27.3448L29.0816 27.302L43.2452 14.054L57.452 0.763239H29.2982H1.14435V13.7539Z" fill="#3674B5"/>
<path d="M0.971124 63.6159C1.14438 78.7074 1.36095 97.1859 1.5342 104.732L1.79408 118.408L15.8277 104.732L29.818 91.0121L45.9307 90.7549C63.386 90.4976 66.0715 90.1975 72.6118 87.8395C80.7548 84.8812 86.5588 79.0933 88.4213 72.1477C88.7678 70.7758 88.9844 69.5753 88.8978 69.4896C88.7678 69.361 51.1716 69.4038 33.8462 69.5325L30.3811 69.5753L30.2511 64.5163L30.1212 59.5H59.6611H89.201L88.9411 56.3703C88.2481 47.0667 82.0975 40.4213 71.7023 37.6774C68.7136 36.9057 66.3314 36.8199 34.6258 36.5627L0.711243 36.2626L0.971124 63.6159Z" fill="#3674B5"/>
</svg>
