<svg width="32" height="30" viewBox="0 0 32 30" fill="none" xmlns="http://www.w3.org/2000/svg">
<path d="M10.7337 20.3975H10.7347C12.2929 20.9169 14.2446 21.167 16.1663 21.167C17.968 21.167 19.7966 20.9476 21.3021 20.4922L21.5989 20.3975H21.5999L23.9241 19.6182C22.7729 20.6217 21.996 21.8305 21.4398 23.0254C20.7471 24.5133 20.3742 26.0356 20.0648 27.1006C19.903 27.6572 19.7687 28.0537 19.6312 28.3125C19.581 28.4069 19.5421 28.4582 19.5189 28.4854H6.66632C3.58321 28.4852 1.08349 25.9855 1.08331 22.9023V17.165L10.7337 20.3975ZM31.2503 17.2354C31.1792 17.2354 31.1086 17.2355 31.0384 17.2363L31.2503 17.165V17.2354ZM14.5833 1.48535H17.7503C20.8334 1.48553 23.3331 3.98525 23.3333 7.06836V7.81836H25.6663C28.3734 7.81836 30.6127 9.73666 31.1185 12.2949C29.3975 12.8667 26.8603 13.712 24.6585 14.4463C23.4221 14.8586 22.2909 15.2355 21.4691 15.5098C21.0582 15.6469 20.7244 15.7589 20.4935 15.8359C20.3783 15.8744 20.2887 15.9045 20.2278 15.9248C20.1977 15.9349 20.1741 15.942 20.1585 15.9473C20.151 15.9498 20.1449 15.9518 20.1409 15.9531C20.139 15.9538 20.137 15.9547 20.136 15.9551H20.1351L20.3724 16.667L20.1341 15.9551C19.1006 16.3 17.653 16.4854 16.1663 16.4854C14.8654 16.4853 13.5945 16.3437 12.6048 16.0771L12.1985 15.9551H12.1966C12.1953 15.9546 12.1931 15.9539 12.1907 15.9531C12.1856 15.9514 12.1781 15.9486 12.1683 15.9453C12.148 15.9385 12.1178 15.9282 12.0784 15.915C11.9997 15.8887 11.884 15.85 11.7366 15.8008C11.4417 15.7022 11.0192 15.5618 10.5101 15.3916C9.49177 15.0513 8.12578 14.5941 6.73468 14.1289C4.55872 13.4013 2.32595 12.6526 1.26398 12.2959C1.77506 9.73793 3.97704 7.81851 6.66632 7.81836H9.00031V7.06836C9.00048 3.98514 11.5001 1.48535 14.5833 1.48535ZM14.5833 3.15234C12.4196 3.15234 10.6665 4.90471 10.6663 7.06836V7.81836H21.6663V7.06836C21.6661 4.90482 19.9138 3.15252 17.7503 3.15234H14.5833Z" fill="#3674B5" stroke="black" stroke-width="1.5"/>
</svg>
