<svg width="38" height="38" viewBox="0 0 38 38" fill="none" xmlns="http://www.w3.org/2000/svg">
<path d="M4.75 30.0833H1.58334V28.4999C1.58334 25.5489 3.60172 23.0691 6.33334 22.3661" fill="#3674B5"/>
<path d="M4.75 30.0833H1.58334V28.4999C1.58334 25.5489 3.60172 23.0691 6.33334 22.3661" stroke="black" stroke-width="1.5" stroke-linecap="round" stroke-linejoin="round"/>
<path d="M9.5 17.1463C7.65512 16.4943 6.33334 14.7348 6.33334 12.6666C6.33334 10.5984 7.65512 8.83895 9.5 8.18689" fill="#3674B5"/>
<path d="M9.5 17.1463C7.65512 16.4943 6.33334 14.7348 6.33334 12.6666C6.33334 10.5984 7.65512 8.83895 9.5 8.18689" stroke="black" stroke-width="1.5" stroke-linecap="round" stroke-linejoin="round"/>
<path d="M33.25 30.0833H36.4167V28.4999C36.4167 25.5489 34.3982 23.0691 31.6667 22.3661" fill="#3674B5"/>
<path d="M33.25 30.0833H36.4167V28.4999C36.4167 25.5489 34.3982 23.0691 31.6667 22.3661" stroke="black" stroke-width="1.5" stroke-linecap="round" stroke-linejoin="round"/>
<path d="M28.5 8.18689C30.3449 8.83895 31.6667 10.5984 31.6667 12.6666C31.6667 14.7348 30.3449 16.4943 28.5 17.1463" fill="#3674B5"/>
<path d="M28.5 8.18689C30.3449 8.83895 31.6667 10.5984 31.6667 12.6666C31.6667 14.7348 30.3449 16.4943 28.5 17.1463" stroke="black" stroke-width="1.5" stroke-linecap="round" stroke-linejoin="round"/>
<path d="M22.1667 22.1666H15.8333C12.3355 22.1666 9.5 25.0022 9.5 28.5V30.0833H28.5V28.5C28.5 25.0022 25.6644 22.1666 22.1667 22.1666Z" fill="#3674B5" stroke="black" stroke-width="1.5" stroke-linecap="round" stroke-linejoin="round"/>
<path d="M19 17.4166C21.6234 17.4166 23.75 15.29 23.75 12.6666C23.75 10.0433 21.6234 7.91663 19 7.91663C16.3766 7.91663 14.25 10.0433 14.25 12.6666C14.25 15.29 16.3766 17.4166 19 17.4166Z" fill="#3674B5" stroke="black" stroke-width="1.5" stroke-linecap="round" stroke-linejoin="round"/>
</svg>
